<?xml version="1.0" encoding="utf-8"?>
<svg xmlns="http://www.w3.org/2000/svg" height="512pt" version="1.1" viewBox="0 0 512 512" width="512pt">
<path d="M 0.00 0.00 L 512.00 0.00 L 512.00 512.00 L 0.00 512.00 L 0.00 0.00 Z" fill="transparent" opacity="1.00" stroke="transparent" stroke-width="0.25"/>
<path d="M 400.39 15.33 C 402.36 14.11 404.78 14.54 406.98 14.41 C 412.95 14.57 419.01 13.96 424.88 15.31 C 430.88 16.65 436.94 17.93 442.69 20.18 C 454.56 24.66 464.85 32.40 474.43 40.56 C 481.99 48.22 488.65 56.97 493.12 66.81 C 496.23 74.34 498.56 82.18 500.15 90.17 C 500.89 93.16 498.69 96.29 495.98 97.39 C 493.29 97.62 490.07 98.17 487.99 96.01 C 486.00 93.73 486.02 90.48 485.35 87.67 C 480.74 66.03 465.50 47.42 446.12 37.11 C 437.76 32.52 428.42 30.19 419.05 28.87 C 412.62 28.17 406.10 29.00 399.70 28.06 C 395.16 25.48 395.47 17.28 400.39 15.33 Z" fill="#1d436d" opacity="1.00" stroke="#1d436d" stroke-width="0.25"/>
<path d="M 234.49 33.47 C 239.38 29.20 245.34 25.60 251.99 25.35 C 257.39 25.14 263.03 24.92 268.10 27.10 C 275.52 30.04 280.89 36.16 287.05 40.98 C 313.25 62.06 339.52 83.07 365.40 104.56 C 378.01 114.95 391.02 124.87 403.42 135.51 C 430.53 156.68 456.65 179.07 483.61 200.42 C 486.95 203.39 490.85 205.74 493.86 209.07 C 496.26 211.68 495.85 215.96 493.42 218.40 C 486.83 225.56 481.34 233.62 475.05 241.03 C 470.43 246.44 466.84 252.77 461.41 257.45 C 458.40 260.13 453.62 260.14 450.60 257.47 C 441.23 250.02 432.51 241.72 422.62 234.93 C 422.59 313.30 422.62 391.67 422.56 470.04 C 422.54 477.49 419.67 485.05 414.22 490.23 C 408.78 495.91 400.75 498.51 393.03 498.53 C 301.67 498.49 210.32 498.54 118.97 498.51 C 110.35 498.34 101.51 494.84 96.04 487.98 C 91.52 482.78 89.56 475.81 89.58 469.01 C 89.54 390.95 89.70 312.88 89.47 234.82 C 82.61 239.79 76.27 245.41 69.65 250.69 C 66.41 253.25 63.57 256.36 59.98 258.47 C 56.71 258.81 52.59 259.60 50.06 256.94 C 47.46 254.53 45.48 251.55 43.39 248.71 C 37.16 240.29 30.39 232.28 23.90 224.06 C 21.52 221.00 18.51 218.36 16.76 214.86 C 15.81 211.99 17.54 209.37 19.69 207.63 C 46.43 186.01 73.16 164.38 100.05 142.94 C 103.50 140.00 107.37 137.46 110.27 133.95 C 110.65 109.34 110.24 84.70 110.37 60.09 C 110.31 57.83 112.11 56.00 113.88 54.86 C 119.08 53.23 124.65 53.70 130.00 54.15 C 140.27 54.47 150.57 53.96 160.84 54.35 C 163.82 54.29 165.26 57.30 165.24 59.91 C 165.58 70.03 165.08 80.17 165.50 90.29 C 175.58 82.46 185.00 73.82 195.14 66.06 C 208.14 55.06 221.56 44.56 234.49 33.47 Z" fill="#1d436d" opacity="1.00" stroke="#1d436d" stroke-width="0.25"/>
<path d="M 237.28 49.41 C 241.99 45.86 246.18 41.16 252.04 39.55 C 257.05 39.00 262.94 38.32 266.85 42.23 C 296.31 66.07 325.81 89.87 355.08 113.94 C 380.55 134.47 406.01 155.03 431.27 175.81 C 446.77 188.93 462.94 201.22 478.63 214.10 C 475.61 218.51 471.65 222.14 468.41 226.36 C 464.09 231.41 460.58 237.24 455.36 241.46 C 453.95 242.27 452.80 240.98 451.73 240.24 C 436.12 227.13 419.99 214.67 404.36 201.58 C 374.46 177.92 345.21 153.47 315.56 129.50 C 297.32 115.14 279.51 100.24 261.63 85.44 C 258.85 82.61 254.18 82.65 251.47 85.57 C 219.54 112.30 186.90 138.19 154.71 164.60 C 139.84 176.09 125.63 188.38 110.72 199.80 C 95.15 212.54 79.16 224.77 63.94 237.93 C 61.86 239.78 59.49 241.26 57.04 242.55 C 49.33 233.00 41.00 223.91 33.86 213.92 C 50.97 200.31 67.92 186.50 85.10 172.99 C 93.99 165.56 102.88 158.14 111.98 150.98 C 126.89 138.91 141.50 126.48 156.52 114.55 C 170.83 103.23 184.96 91.69 199.23 80.33 C 212.12 70.27 224.45 59.54 237.28 49.41 Z" fill="#ffffff" opacity="1.00" stroke="#ffffff" stroke-width="0.25"/>
<path d="M 404.48 52.66 C 407.07 51.17 410.15 51.57 413.00 51.70 C 417.56 52.32 422.23 52.60 426.61 54.11 C 443.13 59.92 456.88 73.56 461.99 90.42 C 462.94 93.94 464.55 98.02 462.37 101.40 C 460.69 104.46 456.77 105.04 453.66 104.26 C 448.68 101.70 449.42 95.34 447.47 90.85 C 442.93 80.40 434.12 71.84 423.49 67.68 C 417.38 65.70 410.84 65.99 404.52 65.35 C 398.57 63.98 398.80 54.30 404.48 52.66 Z" fill="#1d436d" opacity="1.00" stroke="#1d436d" stroke-width="0.25"/>
<path d="M 123.51 67.48 C 133.45 67.37 143.40 67.32 153.35 67.47 C 153.33 76.32 153.35 85.18 153.39 94.03 C 153.27 96.15 153.60 98.52 152.32 100.38 C 150.90 101.98 149.10 103.16 147.43 104.47 C 139.66 110.22 132.50 116.76 124.46 122.16 C 123.91 119.81 123.52 117.43 123.56 115.02 C 123.60 99.17 123.46 83.33 123.51 67.48 Z" fill="#a2d6fd" opacity="1.00" stroke="#a2d6fd" stroke-width="0.25"/>
<path d="M 406.28 85.09 C 417.86 81.64 431.92 91.42 430.73 103.97 C 431.57 110.64 428.30 117.07 422.97 120.96 C 418.23 125.24 411.37 125.29 405.42 124.27 C 393.23 120.94 387.78 104.76 394.15 94.22 C 397.07 89.99 401.27 86.48 406.28 85.09 Z" fill="#1d436d" opacity="1.00" stroke="#1d436d" stroke-width="0.25"/>
<path d="M 407.51 99.39 C 411.75 96.17 418.62 100.66 417.60 105.81 C 417.19 108.82 413.89 110.88 410.99 110.66 C 407.12 110.98 403.06 106.13 405.13 102.46 C 405.67 101.26 406.52 100.23 407.51 99.39 Z" fill="#ffffff" opacity="1.00" stroke="#ffffff" stroke-width="0.25"/>
<path d="M 256.35 100.26 C 257.53 100.14 258.48 100.98 259.37 101.62 C 279.15 118.55 299.77 134.46 319.68 151.25 C 330.22 159.36 340.45 167.88 350.73 176.33 C 367.34 189.33 383.40 203.00 400.00 216.00 C 402.84 218.28 405.85 220.42 408.30 223.15 C 409.12 227.03 408.55 231.06 408.68 235.00 C 408.65 313.68 408.63 392.37 408.76 471.05 C 408.00 479.09 400.16 485.77 392.09 485.43 C 301.37 485.41 210.65 485.37 119.93 485.45 C 110.84 485.76 102.81 477.09 103.52 468.07 C 103.44 390.05 103.42 312.03 103.46 234.00 C 103.54 230.52 103.18 226.99 103.79 223.55 C 105.37 221.53 107.56 220.12 109.52 218.49 C 142.52 192.18 175.22 165.47 208.16 139.09 C 221.66 127.55 235.80 116.80 249.36 105.33 C 251.58 103.52 253.73 101.51 256.35 100.26 Z" fill="#a2d6fd" opacity="1.00" stroke="#a2d6fd" stroke-width="0.25"/>
<path d="M 215.46 222.71 C 218.34 222.01 220.84 224.28 222.25 226.55 C 223.54 234.16 221.75 242.01 223.38 249.60 C 232.05 249.36 240.73 249.64 249.41 249.44 C 249.51 242.62 249.26 235.80 249.47 228.98 C 249.39 223.55 257.15 220.09 261.00 223.99 C 263.03 225.67 263.32 228.47 263.37 230.93 C 263.44 237.13 263.30 243.34 263.39 249.54 C 272.04 249.48 280.68 249.38 289.33 249.54 C 289.61 242.73 289.17 235.92 289.53 229.12 C 289.96 224.29 296.05 221.79 300.07 224.02 C 302.32 225.56 303.36 228.29 303.36 230.95 C 303.52 237.14 303.32 243.35 303.41 249.55 C 311.63 249.51 319.85 249.43 328.07 249.44 C 331.68 249.30 335.73 252.17 335.52 256.06 C 335.80 265.28 335.42 274.50 335.72 283.72 C 343.41 283.97 351.20 283.05 358.82 284.30 C 365.10 285.29 365.57 295.67 359.61 297.44 C 356.50 298.45 353.19 298.31 350.00 297.97 C 345.23 297.41 340.48 298.24 335.72 298.35 C 335.62 306.77 335.65 315.19 335.70 323.61 C 342.76 323.86 349.82 323.53 356.88 323.80 C 361.73 324.03 364.91 329.81 362.90 334.14 C 361.87 336.82 358.69 337.75 356.06 337.69 C 349.31 337.81 342.55 337.57 335.80 337.73 C 335.77 346.60 335.20 355.52 336.16 364.36 C 343.47 364.29 350.79 364.14 358.09 364.35 C 360.75 364.23 363.48 366.52 363.51 369.25 C 363.54 371.52 364.10 374.45 361.97 376.00 C 360.14 377.87 357.43 377.67 355.03 377.71 C 348.64 377.68 342.24 377.72 335.85 377.60 C 335.21 385.99 335.87 394.41 335.44 402.81 C 335.34 406.47 331.35 408.55 328.07 408.52 C 319.84 408.69 311.60 408.61 303.38 408.48 C 303.26 415.34 303.45 422.22 303.25 429.08 C 303.26 432.23 301.79 435.30 299.01 436.88 C 294.88 439.33 289.38 435.63 289.48 431.02 C 289.22 423.50 289.64 415.97 289.32 408.45 C 280.67 408.59 272.01 408.55 263.37 408.44 C 263.29 415.31 263.50 422.18 263.27 429.04 C 263.25 432.20 261.89 435.40 259.07 437.02 C 254.96 439.20 249.39 435.62 249.47 431.02 C 249.25 423.52 249.55 416.02 249.47 408.52 C 240.53 408.52 231.60 408.39 222.67 408.54 C 222.55 416.03 222.80 423.53 222.56 431.03 C 222.66 433.95 220.26 436.52 217.66 437.46 C 212.70 438.69 208.71 433.61 208.74 429.04 C 208.57 422.25 208.71 415.45 208.78 408.66 C 200.21 408.44 191.63 408.76 183.05 408.53 C 179.55 408.71 176.68 405.48 176.69 402.09 C 176.44 394.13 176.66 386.15 176.69 378.19 C 169.48 377.22 162.21 377.98 154.98 377.67 C 152.52 377.74 150.18 376.26 148.94 374.18 C 147.76 370.79 148.79 366.00 152.42 364.61 C 160.53 363.97 168.69 364.63 176.82 364.25 C 176.78 355.43 176.74 346.60 176.70 337.78 C 169.16 337.46 161.61 337.89 154.08 337.52 C 151.50 337.49 149.72 335.07 148.77 332.92 C 148.01 328.64 151.35 323.57 155.99 323.75 C 162.87 323.59 169.75 323.75 176.64 323.63 C 176.77 315.17 176.72 306.72 176.71 298.26 C 169.80 298.11 162.89 298.35 155.99 298.19 C 151.92 298.15 147.64 294.28 148.47 290.02 C 148.63 286.26 152.45 283.70 156.00 283.74 C 162.87 283.58 169.75 283.80 176.62 283.65 C 176.81 274.46 176.47 265.26 176.65 256.08 C 176.58 252.31 180.21 249.14 183.91 249.48 C 192.11 249.41 200.32 249.52 208.52 249.51 C 208.59 242.98 208.30 236.44 208.61 229.91 C 208.67 226.18 212.10 223.54 215.46 222.71 Z" fill="#1d436d" opacity="1.00" stroke="#1d436d" stroke-width="0.25"/>
<path d="M 191.35 263.55 C 234.98 263.58 278.60 263.49 322.23 263.64 C 322.43 302.42 322.24 341.21 322.30 380.00 C 322.26 384.88 322.60 389.80 321.69 394.62 C 278.17 394.68 234.66 394.66 191.14 394.65 C 190.48 389.79 190.77 384.88 190.73 380.00 C 190.69 343.66 190.74 307.32 190.74 270.98 C 190.73 268.48 191.05 266.02 191.35 263.55 Z" fill="#ffffff" opacity="1.00" stroke="#ffffff" stroke-width="0.25"/>
<path d="M 248.38 294.58 C 256.40 294.13 265.05 293.34 272.28 297.61 C 279.75 302.05 286.40 308.86 288.78 317.42 C 291.26 325.15 291.65 333.86 288.54 341.47 C 284.35 353.26 273.11 362.00 260.82 363.87 C 253.94 365.33 247.00 363.05 240.80 360.21 C 231.57 355.92 225.32 346.90 222.53 337.32 C 220.15 328.62 221.92 319.22 226.01 311.31 C 230.79 303.01 238.99 296.67 248.38 294.58 Z" fill="#1d436d" opacity="1.00" stroke="#1d436d" stroke-width="0.25"/>
<path d="M 249.50 308.88 C 256.13 306.35 264.03 307.93 269.18 312.80 C 272.06 315.57 275.11 318.62 276.02 322.65 C 277.32 329.57 277.07 337.58 271.91 342.96 C 265.54 350.64 253.53 351.74 245.29 346.53 C 235.39 341.07 232.31 326.84 238.56 317.57 C 241.36 313.81 245.00 310.42 249.50 308.88 Z" fill="#a2d6fd" opacity="1.00" stroke="#a2d6fd" stroke-width="0.25"/>
</svg>