<svg xmlns="http://www.w3.org/2000/svg" viewBox="0 0 64 64">
  <style>.led{animation:blink 1.5s infinite}@keyframes blink{0%,100%{opacity:1}50%{opacity:0.5}}</style>
  <path d="M8 32c0-8 6-14 14-14s14 6 14 14-6 14-14 14-14-6-14-14zm8 0c0 3 3 6 6 6s6-3 6-6-3-6-6-6-6 3-6 6z" fill="#1d436d"/>
  <path d="M28 32c0-8 6-14 14-14s14 6 14 14-6 14-14 14-14-6-14-14zm8 0c0 3 3 6 6 6s6-3 6-6-3-6-6-6-6 3-6 6z" fill="#1d436d"/>
  <path d="M48 32c0-8 6-14 14-14v28c-8 0-14-6-14-14z" fill="#1d436d"/>
  <circle class="led" cx="22" cy="32" r="3" fill="#a2d6fd"/>
  <circle class="led" cx="42" cy="32" r="3" fill="#a2d6fd"/>
  <circle class="led" cx="62" cy="32" r="3" fill="#a2d6fd"/>
</svg>